<?xml version="1.0" encoding="UTF-8"?>
<svg width="300px" height="129px" viewBox="0 0 300 129" version="1.1" xmlns="http://www.w3.org/2000/svg" xmlns:xlink="http://www.w3.org/1999/xlink">
    <title>crs-logo</title>
    <g id="Page-1" stroke="none" stroke-width="1" fill="none" fill-rule="evenodd">
        <g id="crs-logo" transform="translate(0.000000, 1.000000)" fill="#00468B" fill-rule="nonzero">
            <g id="Group">
                <path d="M8.74666667,115.333333 C7.84,114.8 6.98666667,114.56 5.92,114.56 C3.25333333,114.56 1.52,116.506667 1.52,119.493333 C1.52,122.426667 3.36,124.48 6,124.48 C7.06666667,124.48 7.89333333,124.213333 8.88,123.52 L8.90666667,125.066667 C7.94666667,125.333333 6.96,125.493333 5.92,125.493333 C2.42666667,125.52 0,123.173333 0,119.733333 C0,116.213333 2.72,113.546667 6.37333333,113.546667 C7.28,113.546667 8.08,113.706667 8.8,113.973333 L8.74666667,115.333333 Z" id="Path"></path>
                <path d="M12.8533333,121.306667 L11.9466667,123.52 C11.76,123.893333 11.7066667,124.293333 11.7066667,124.666667 C11.7066667,124.88 11.7333333,125.04 11.8133333,125.333333 L9.68,125.333333 C9.97333333,124.826667 10.24,124.293333 10.5333333,123.626667 L15.04,113.173333 L19.68,123.733333 C20.0533333,124.56 20.2133333,124.906667 20.5066667,125.333333 L18.3733333,125.333333 C18.4533333,125.066667 18.48,124.853333 18.48,124.72 C18.48,124.453333 18.3733333,124.106667 18.1866667,123.626667 L17.2,121.333333 L12.8533333,121.333333 L12.8533333,121.306667 Z M15.0133333,116.186667 L13.2266667,120.4 L16.8,120.4 L15.0133333,116.186667 Z" id="Shape"></path>
                <path d="M24.08,123.6 C24.08,124.506667 24.16,124.8 24.4266667,125.306667 L22.3733333,125.306667 C22.6666667,124.8 22.72,124.533333 22.72,123.626667 L22.72,114.693333 L22.5066667,114.693333 C21.2,114.693333 20.5066667,114.826667 19.36,115.306667 L19.9733333,113.786667 L27.68,113.786667 L27.12,115.306667 C26.4,114.853333 25.6266667,114.693333 24.08,114.693333 L24.08,123.6 Z" id="Path"></path>
                <path d="M31.1466667,119.84 L31.1466667,123.6 C31.1466667,124.506667 31.2,124.8 31.4933333,125.306667 L29.4133333,125.306667 C29.68,124.8 29.76,124.533333 29.76,123.626667 L29.76,115.466667 C29.76,114.586667 29.68,114.293333 29.4133333,113.786667 L31.4933333,113.786667 C31.2,114.293333 31.1466667,114.586667 31.1466667,115.466667 L31.1466667,118.906667 L36.64,118.906667 L36.64,115.466667 C36.64,114.586667 36.56,114.293333 36.2933333,113.786667 L38.3733333,113.786667 C38.08,114.293333 38.0266667,114.586667 38.0266667,115.466667 L38.0266667,123.626667 C38.0266667,124.533333 38.08,124.826667 38.3733333,125.333333 L36.2933333,125.333333 C36.56,124.826667 36.64,124.56 36.64,123.653333 L36.64,119.866667 L31.1466667,119.866667 L31.1466667,119.84 Z" id="Path"></path>
                <path d="M45.76,125.52 C42.4266667,125.52 40.1333333,123.146667 40.1333333,119.68 C40.1333333,116.106667 42.72,113.52 46.32,113.52 C49.6533333,113.52 51.8666667,115.866667 51.8666667,119.306667 C51.84,122.96 49.3066667,125.52 45.76,125.52 M45.9733333,114.586667 C43.3866667,114.586667 41.6266667,116.506667 41.6266667,119.333333 C41.6266667,122.266667 43.6,124.533333 46.16,124.533333 C48.5866667,124.533333 50.3733333,122.533333 50.3733333,119.733333 C50.3466667,116.746667 48.5066667,114.586667 45.9733333,114.586667" id="Shape"></path>
                <path d="M53.2533333,125.306667 C53.52,124.8 53.6,124.533333 53.6,123.626667 L53.6,115.466667 C53.6,114.586667 53.52,114.293333 53.2533333,113.786667 L55.3333333,113.786667 C55.04,114.293333 54.9866667,114.586667 54.9866667,115.466667 L54.9866667,124.373333 L56.4,124.373333 C57.68,124.4 58.4533333,124.213333 59.5733333,123.653333 L58.8266667,125.306667 L53.2533333,125.306667 L53.2533333,125.306667 Z" id="Path"></path>
                <path d="M61.2266667,125.306667 C61.4933333,124.8 61.5733333,124.533333 61.5733333,123.626667 L61.5733333,115.466667 C61.5733333,114.586667 61.4933333,114.293333 61.2266667,113.786667 L63.3066667,113.786667 C63.0133333,114.293333 62.96,114.586667 62.96,115.466667 L62.96,123.626667 C62.96,124.533333 63.0133333,124.8 63.3066667,125.333333 L61.2266667,125.333333 L61.2266667,125.306667 Z" id="Path"></path>
                <path d="M73.9466667,115.333333 C73.04,114.8 72.1866667,114.56 71.12,114.56 C68.4533333,114.56 66.72,116.506667 66.72,119.493333 C66.72,122.426667 68.56,124.48 71.2,124.48 C72.2666667,124.48 73.0933333,124.213333 74.08,123.52 L74.1066667,125.066667 C73.1466667,125.333333 72.16,125.493333 71.12,125.493333 C67.6,125.493333 65.1733333,123.12 65.1733333,119.706667 C65.1733333,116.186667 67.92,113.52 71.5466667,113.52 C72.4533333,113.52 73.2533333,113.68 73.9733333,113.946667 L73.9466667,115.333333 Z" id="Path"></path>
                <path d="M82.3466667,123.626667 C82.3466667,124.533333 82.4266667,124.773333 82.6933333,125.306667 L80.6133333,125.306667 C80.9066667,124.8 80.96,124.533333 80.96,123.626667 L80.96,115.466667 C80.96,114.586667 80.9066667,114.293333 80.6133333,113.786667 L82.8533333,113.786667 C84.3466667,113.786667 85.2266667,114 86.0266667,114.56 C86.8,115.12 87.2,115.893333 87.2,116.773333 C87.2,118.186667 86.1866667,119.333333 84.32,120 L84.6133333,120.373333 C86.1066667,122.346667 87.36,123.84 88.2666667,124.773333 C88.3466667,124.853333 88.4266667,124.933333 88.5866667,125.066667 C88.2666667,125.28 88,125.333333 87.7866667,125.333333 C87.3066667,125.333333 86.56,124.72 85.3066667,123.306667 L82.3466667,120 L82.3466667,123.626667 Z M85.7066667,116.88 C85.7066667,115.84 85.04,115.066667 84,114.826667 C83.4933333,114.693333 83.2266667,114.693333 82.4533333,114.693333 L82.32,114.693333 L82.32,119.386667 C84.3466667,119.386667 85.7066667,118.373333 85.7066667,116.88" id="Shape"></path>
                <path d="M95.2533333,118.853333 L94.4533333,120.266667 C93.84,119.84 93.3066667,119.706667 92.2133333,119.706667 L91.1466667,119.706667 L91.1466667,124.373333 L92.7466667,124.373333 C94.0533333,124.373333 94.7466667,124.24 95.92,123.84 L95.2533333,125.28 L89.4133333,125.28 C89.68,124.773333 89.7333333,124.506667 89.7333333,123.6 L89.7333333,115.466667 C89.7333333,114.586667 89.68,114.293333 89.3866667,113.786667 L95.76,113.786667 L94.9866667,115.146667 C94.5066667,114.826667 93.8666667,114.693333 92.6666667,114.693333 L91.12,114.693333 L91.12,118.853333 L95.2533333,118.853333 L95.2533333,118.853333 Z" id="Path"></path>
                <path d="M97.6,125.306667 C97.8666667,124.8 97.9466667,124.533333 97.9466667,123.626667 L97.9466667,115.466667 C97.9466667,114.586667 97.8666667,114.293333 97.6,113.786667 L99.68,113.786667 C99.3866667,114.293333 99.3333333,114.586667 99.3333333,115.466667 L99.3333333,124.373333 L100.72,124.373333 C102,124.4 102.773333,124.213333 103.893333,123.653333 L103.146667,125.306667 L97.6,125.306667 L97.6,125.306667 Z" id="Path"></path>
                <path d="M105.493333,125.306667 C105.76,124.8 105.84,124.533333 105.84,123.626667 L105.84,115.466667 C105.84,114.586667 105.76,114.293333 105.493333,113.786667 L107.573333,113.786667 C107.28,114.293333 107.226667,114.586667 107.226667,115.466667 L107.226667,123.626667 C107.226667,124.533333 107.28,124.8 107.573333,125.333333 L105.493333,125.333333 L105.493333,125.306667 Z" id="Path"></path>
                <path d="M115.493333,118.853333 L114.666667,120.266667 C114.053333,119.84 113.52,119.706667 112.426667,119.706667 L111.36,119.706667 L111.36,124.373333 L112.96,124.373333 C114.266667,124.373333 114.96,124.24 116.133333,123.84 L115.466667,125.28 L109.626667,125.28 C109.893333,124.773333 109.946667,124.506667 109.946667,123.6 L109.946667,115.466667 C109.946667,114.586667 109.893333,114.293333 109.6,113.786667 L115.973333,113.786667 L115.2,115.146667 C114.72,114.826667 114.08,114.693333 112.88,114.693333 L111.333333,114.693333 L111.333333,118.853333 L115.493333,118.853333 L115.493333,118.853333 Z" id="Path"></path>
                <path d="M119.626667,123.6 C119.626667,124.506667 119.68,124.8 119.973333,125.306667 L117.893333,125.306667 C118.16,124.8 118.24,124.533333 118.24,123.626667 L118.24,115.466667 C118.24,114.586667 118.16,114.293333 117.893333,113.786667 L124.266667,113.786667 L123.466667,115.253333 C122.933333,114.853333 122.346667,114.693333 121.466667,114.693333 L119.653333,114.693333 L119.653333,118.96 L123.68,118.96 L122.906667,120.32 C122.48,120 121.973333,119.893333 121.12,119.893333 L119.653333,119.893333 L119.653333,123.6 L119.626667,123.6 Z" id="Path"></path>
                <path d="M135.546667,115.306667 C134.773333,114.8 134.133333,114.586667 133.36,114.586667 C132.213333,114.586667 131.493333,115.253333 131.493333,116.32 C131.493333,116.773333 131.653333,117.253333 131.92,117.573333 C132.24,118 132.613333,118.293333 133.573333,118.88 C134.586667,119.493333 134.906667,119.733333 135.253333,120.08 C135.76,120.613333 136.053333,121.36 136.053333,122.133333 C136.053333,124.053333 134.4,125.52 132.266667,125.52 C131.52,125.52 130.88,125.386667 130.133333,125.093333 L130.133333,123.386667 C131.04,124.186667 131.68,124.48 132.533333,124.48 C133.733333,124.48 134.693333,123.52 134.693333,122.24 C134.693333,121.226667 134.453333,120.933333 132.693333,119.813333 C131.786667,119.2 131.333333,118.853333 130.933333,118.426667 C130.4,117.866667 130.106667,117.2 130.106667,116.506667 C130.106667,114.746667 131.6,113.493333 133.76,113.493333 C134.373333,113.493333 134.96,113.573333 135.546667,113.733333 L135.546667,115.306667 L135.546667,115.306667 Z" id="Path"></path>
                <path d="M143.6,118.853333 L142.773333,120.266667 C142.16,119.84 141.626667,119.706667 140.533333,119.706667 L139.466667,119.706667 L139.466667,124.373333 L141.066667,124.373333 C142.373333,124.373333 143.066667,124.24 144.24,123.84 L143.573333,125.28 L137.733333,125.28 C138,124.773333 138.053333,124.506667 138.053333,123.6 L138.053333,115.466667 C138.053333,114.586667 138,114.293333 137.706667,113.786667 L144.08,113.786667 L143.306667,115.146667 C142.826667,114.826667 142.186667,114.693333 140.986667,114.693333 L139.466667,114.693333 L139.466667,118.853333 L143.6,118.853333 L143.6,118.853333 Z" id="Path"></path>
                <path d="M147.546667,123.626667 C147.546667,124.533333 147.626667,124.773333 147.893333,125.306667 L145.813333,125.306667 C146.106667,124.8 146.16,124.533333 146.16,123.626667 L146.16,115.466667 C146.16,114.586667 146.106667,114.293333 145.813333,113.786667 L148.053333,113.786667 C149.546667,113.786667 150.426667,114 151.226667,114.56 C152,115.12 152.4,115.893333 152.4,116.773333 C152.4,118.186667 151.386667,119.333333 149.52,120 L149.813333,120.373333 C151.306667,122.346667 152.56,123.84 153.466667,124.773333 C153.546667,124.853333 153.653333,124.933333 153.786667,125.066667 C153.466667,125.253333 153.2,125.333333 152.986667,125.333333 C152.533333,125.333333 151.76,124.72 150.506667,123.306667 L147.546667,120 L147.546667,123.626667 Z M150.933333,116.88 C150.933333,115.84 150.266667,115.066667 149.226667,114.826667 C148.72,114.693333 148.453333,114.693333 147.68,114.693333 L147.546667,114.693333 L147.546667,119.386667 C149.546667,119.386667 150.933333,118.373333 150.933333,116.88" id="Shape"></path>
                <path d="M157.306667,125.306667 L153.893333,116.026667 C153.52,115.013333 153.226667,114.4 152.826667,113.786667 L154.88,113.786667 C154.853333,113.973333 154.853333,114.053333 154.853333,114.16 C154.853333,114.613333 154.96,115.12 155.253333,115.893333 L157.893333,123.306667 L160.48,116.026667 C160.693333,115.44 160.8,114.906667 160.8,114.48 C160.8,114.24 160.773333,114.106667 160.72,113.786667 L162.72,113.786667 C162.373333,114.346667 162.133333,114.933333 161.68,116.133333 L158.293333,125.306667 L157.306667,125.306667 L157.306667,125.306667 Z" id="Path"></path>
                <path d="M164,125.306667 C164.266667,124.8 164.346667,124.533333 164.346667,123.626667 L164.346667,115.466667 C164.346667,114.586667 164.266667,114.293333 164,113.786667 L166.08,113.786667 C165.786667,114.293333 165.733333,114.586667 165.733333,115.466667 L165.733333,123.626667 C165.733333,124.533333 165.786667,124.8 166.08,125.333333 L164,125.333333 L164,125.306667 Z" id="Path"></path>
                <path d="M176.293333,115.333333 C175.386667,114.8 174.533333,114.56 173.466667,114.56 C170.8,114.56 169.066667,116.506667 169.066667,119.493333 C169.066667,122.426667 170.906667,124.48 173.546667,124.48 C174.613333,124.48 175.44,124.213333 176.426667,123.52 L176.453333,125.066667 C175.493333,125.333333 174.506667,125.493333 173.466667,125.493333 C169.946667,125.493333 167.546667,123.12 167.546667,119.706667 C167.546667,116.186667 170.266667,113.52 173.92,113.52 C174.826667,113.52 175.626667,113.68 176.346667,113.946667 L176.293333,115.333333 Z" id="Path"></path>
                <path d="M183.786667,118.853333 L182.96,120.266667 C182.346667,119.84 181.813333,119.706667 180.72,119.706667 L179.653333,119.706667 L179.653333,124.373333 L181.253333,124.373333 C182.56,124.373333 183.253333,124.24 184.426667,123.84 L183.76,125.28 L177.92,125.28 C178.186667,124.773333 178.24,124.506667 178.24,123.6 L178.24,115.466667 C178.24,114.586667 178.186667,114.293333 177.893333,113.786667 L184.266667,113.786667 L183.493333,115.146667 C183.013333,114.826667 182.373333,114.693333 181.173333,114.693333 L179.626667,114.693333 L179.626667,118.853333 L183.786667,118.853333 L183.786667,118.853333 Z" id="Path"></path>
                <path d="M191.226667,115.306667 C190.453333,114.8 189.813333,114.586667 189.04,114.586667 C187.893333,114.586667 187.173333,115.253333 187.173333,116.32 C187.173333,116.773333 187.333333,117.253333 187.6,117.573333 C187.92,118 188.293333,118.293333 189.253333,118.88 C190.266667,119.493333 190.586667,119.733333 190.933333,120.08 C191.44,120.613333 191.76,121.36 191.76,122.133333 C191.76,124.053333 190.106667,125.52 187.973333,125.52 C187.226667,125.52 186.586667,125.386667 185.84,125.093333 L185.84,123.386667 C186.746667,124.186667 187.386667,124.48 188.24,124.48 C189.44,124.48 190.4,123.52 190.4,122.24 C190.4,121.226667 190.16,120.933333 188.4,119.813333 C187.493333,119.2 187.04,118.853333 186.64,118.426667 C186.106667,117.866667 185.813333,117.2 185.813333,116.506667 C185.813333,114.746667 187.306667,113.493333 189.466667,113.493333 C190.08,113.493333 190.666667,113.573333 191.253333,113.733333 L191.253333,115.306667 L191.226667,115.306667 Z" id="Path"></path>
                <path d="M119.866667,57.1466667 C115.306667,54.6133333 110.853333,53.5466667 105.333333,53.5466667 C91.8666667,53.5466667 83.3333333,62.8266667 83.3333333,77.0133333 C83.3333333,90.88 92.48,100.64 105.786667,100.64 C111.12,100.64 115.413333,99.3333333 120.48,96.1333333 L120.48,103.44 C115.573333,104.746667 110.666667,105.493333 105.52,105.493333 C87.76,105.493333 75.4933333,94.24 75.4933333,78 C75.4933333,61.2533333 89.3066667,48.6133333 107.706667,48.6133333 C112.266667,48.6133333 116.106667,49.36 119.866667,50.6666667 L119.866667,57.1466667 Z" id="Path"></path>
                <path d="M132.746667,76.4266667 L132.746667,54.1066667 L133.44,54.1066667 C137.386667,54.1066667 138.693333,54.1866667 141.226667,54.7733333 C146.48,55.84 149.813333,59.52 149.813333,64.4533333 C149.813333,71.4933333 142.906667,76.3466667 132.746667,76.4266667 M153.306667,93.44 C147.12,87.04 142.72,79.2266667 142.72,79.2266667 C152.186667,76.1066667 157.333333,70.6933333 157.333333,63.9466667 C157.333333,59.76 155.226667,56.08 151.386667,53.44 C147.36,50.8 142.88,49.7333333 135.36,49.7333333 L124,49.7333333 C125.493333,52.1066667 125.733333,53.52 125.733333,57.7066667 L125.733333,96.4533333 C125.733333,100.72 125.466667,102.026667 124,104.426667 L134.506667,104.426667 C133.093333,101.973333 132.746667,100.72 132.746667,96.4533333 L132.746667,79.2 C132.746667,79.2 143.12,92.32 145.466667,94.8533333 C149.733333,99.44 158.053333,107.173333 172.293333,106.24 C183.12,105.52 191.466667,99.2533333 191.466667,90.16 C191.466667,86.5333333 189.973333,83.0133333 187.36,80.48 C185.6,78.7466667 184.026667,77.68 178.88,74.72 C174.08,71.84 172.24,70.4533333 170.56,68.48 C169.146667,66.9333333 168.373333,64.6933333 168.373333,62.48 C168.373333,57.4666667 172.053333,54.2666667 177.84,54.2666667 C181.786667,54.2666667 185.013333,55.3333333 188.853333,57.7066667 L188.853333,50.5066667 C185.946667,49.76 182.986667,49.36 179.84,49.36 C168.986667,49.36 161.386667,55.28 161.386667,63.6533333 C161.386667,66.9333333 162.88,70.1333333 165.573333,72.7733333 C167.6,74.8266667 169.786667,76.5866667 174.506667,79.3333333 C182.64,84.1066667 184.56,85.8133333 184.56,90.8266667 C184.586667,96.08 179.706667,101.28 173.626667,101.893333 C166.026667,102.64 159.573333,99.92 153.306667,93.44" id="Shape"></path>
                <path d="M62.48,0.4 C62.1866667,0.613333333 61.4133333,0.88 60.4266667,1.44 C57.7333333,2.90666667 54.32,5.06666667 48.48,9.94666667 C35.8933333,20.4 18.56,38.4 15.9733333,63.1466667 C13.4133333,87.6 20.5066667,96.5866667 27.76,98.32 C34.9333333,100.026667 50.1866667,93.5466667 57.68,79.1466667 C65.8933333,63.3333333 62.2933333,43.4933333 60.88,37.7333333 C59.7333333,33.0666667 58.7733333,30.1333333 58.48,25.5466667 C58.08,18.7466667 62.24,9.54666667 64.5866667,6.29333333 C65.84,4.53333333 68.2666667,3.84 69.3866667,7.25333333 C74.2666667,22.1866667 77.6,54.3733333 62.6666667,79.04 C47.8933333,103.44 29.6266667,108.693333 17.8133333,105.92 C7.68,103.52 -1.68,93.0133333 0.693333333,72.3733333 C3.06666667,51.68 13.04,37.7066667 20.0266667,29.6533333 C38.72,8.05333333 59.4666667,0.373333333 62.24,0 C62.64,-0.0533333333 62.7466667,0.24 62.48,0.4" id="Path"></path>
                <path d="M38.6933333,73.68 C32.0533333,75.1733333 28.6133333,78.7733333 27.3066667,80.3466667 C24.2133333,84.0533333 22.2666667,90.2666667 26.2133333,93.6533333 C30,96.8533333 34.9066667,94.3466667 38,91.9733333 C40.5866667,90 44.24,85.7333333 47.2,80.1333333 C49.6266667,75.52 51.3333333,71.6533333 51.84,69.5466667 C52.0533333,68.6666667 52.1333333,67.9466667 52,67.52 C51.76,66.7733333 51.0666667,66.72 50.3733333,67.4666667 C50.16,67.7066667 49.9466667,68 49.68,68.32 C48.1066667,70.2933333 45.28,72.2133333 38.6933333,73.68" id="Path"></path>
                <path d="M192,103.786667 C192,104.453333 191.76,105.04 191.28,105.493333 C190.8,105.973333 190.24,106.213333 189.573333,106.213333 C188.906667,106.213333 188.32,105.973333 187.866667,105.493333 C187.386667,105.013333 187.146667,104.453333 187.146667,103.786667 C187.146667,103.12 187.386667,102.533333 187.866667,102.053333 C188.346667,101.573333 188.906667,101.333333 189.573333,101.333333 C190.24,101.333333 190.8,101.573333 191.28,102.053333 C191.76,102.533333 192,103.12 192,103.786667 M191.413333,103.786667 C191.413333,103.28 191.226667,102.826667 190.88,102.453333 C190.506667,102.08 190.08,101.866667 189.573333,101.866667 C189.066667,101.866667 188.64,102.053333 188.266667,102.453333 C187.92,102.826667 187.733333,103.28 187.733333,103.786667 C187.733333,104.293333 187.92,104.746667 188.266667,105.12 C188.613333,105.493333 189.066667,105.706667 189.573333,105.706667 C190.08,105.706667 190.506667,105.52 190.88,105.12 C191.226667,104.746667 191.413333,104.293333 191.413333,103.786667 M189.866667,105.066667 L189.866667,104.613333 C189.866667,104.426667 189.84,104.266667 189.76,104.133333 C189.68,104 189.6,103.946667 189.466667,103.946667 L189.28,103.946667 L189.28,105.066667 L188.96,105.066667 L188.64,105.066667 L188.64,102.453333 L189.653333,102.453333 C189.92,102.453333 190.133333,102.506667 190.266667,102.613333 C190.4,102.72 190.48,102.853333 190.48,103.013333 L190.48,103.12 L190.48,103.226667 C190.48,103.36 190.453333,103.493333 190.373333,103.573333 C190.293333,103.653333 190.186667,103.733333 190.08,103.76 C190.266667,103.866667 190.373333,103.973333 190.453333,104.16 C190.533333,104.32 190.56,104.48 190.56,104.64 L190.56,105.066667 L189.866667,105.066667 Z M189.92,103.28 L189.92,103.226667 L189.92,103.173333 C189.92,103.093333 189.893333,103.013333 189.84,102.96 C189.786667,102.906667 189.733333,102.88 189.653333,102.88 L189.493333,102.88 L189.28,102.88 L189.28,103.573333 L189.653333,103.573333 C189.733333,103.573333 189.813333,103.546667 189.84,103.493333 C189.92,103.466667 189.92,103.386667 189.92,103.28" id="Shape"></path>
            </g>
            <g id="Group" transform="translate(205.333333, 48.000000)">
                <g>
                    <path d="M8.8,10.3466667 L8.8,17.8666667 C8.8,20.8 8.96,20.8 11.8133333,20.9066667 L11.8133333,21.8933333 C10.1066667,21.8666667 8.45333333,21.7866667 6.74666667,21.76 C5.33333333,21.7866667 3.94666667,21.8666667 2.53333333,21.8933333 L2.53333333,20.9066667 C4.8,20.8266667 4.74666667,20.1333333 4.74666667,18.0533333 L4.74666667,10.3466667 L2.69333333,10.3466667 L2.69333333,9.12 L4.74666667,9.12 L4.74666667,6.93333333 C4.74666667,5.57333333 4.90666667,4.18666667 5.68,3.12 C6.85333333,1.49333333 9.09333333,1.01333333 11.0133333,1.01333333 C12.4266667,1.01333333 14.9066667,1.44 14.9066667,3.33333333 C14.9066667,4.26666667 14.24,5.06666667 13.28,5.06666667 C11.2266667,5.06666667 11.7066667,2.26666667 10.24,2.26666667 C9.22666667,2.26666667 8.82666667,3.41333333 8.82666667,4.21333333 L8.82666667,9.14666667 L12.64,9.14666667 L12.64,10.3733333 L8.8,10.3733333 L8.8,10.3466667 Z" id="Path"></path>
                    <path d="M26.9866667,20.32 C26.3466667,21.52 24.5866667,22.24 23.28,22.24 C21.8133333,22.24 20.9866667,21.5733333 20.5866667,20.1866667 C19.4666667,21.36 17.84,22.24 16.24,22.24 C14.2933333,22.24 12.6933333,20.9066667 12.6933333,18.9066667 C12.6933333,15.8666667 16.1866667,14.8 18.88,13.76 C19.84,13.3866667 20.6133333,13.3866667 20.6133333,12.2133333 C20.6133333,10.8533333 20.48,9.49333333 18.8266667,9.49333333 C17.6533333,9.49333333 17.3066667,9.97333333 16.88,11.04 C16.5066667,12.0266667 16.1066667,12.9866667 14.88,12.9866667 C13.92,12.9866667 13.2266667,12.32 13.2266667,11.3333333 C13.2266667,8.72 17.2533333,8.29333333 19.1733333,8.29333333 C21.8133333,8.29333333 24.6666667,8.96 24.6666667,12.1066667 L24.6666667,18.3466667 C24.6666667,18.88 24.6666667,19.92 25.3066667,19.92 C25.7866667,19.92 26.0266667,19.76 26.3466667,19.4933333 L26.9866667,20.32 Z M20.64,14.3466667 C19.0933333,15.0133333 17.0666667,15.8666667 17.0666667,17.84 C17.0666667,18.8266667 17.4666667,19.9466667 18.5866667,19.9466667 C19.52,19.9466667 20.64,19.04 20.64,18.0266667 L20.64,14.3466667 L20.64,14.3466667 Z" id="Shape"></path>
                    <path d="M33.0133333,18.0533333 C33.0133333,18.5866667 33.0133333,19.9733333 33.3333333,20.3733333 C33.68,20.8266667 34.48,20.9333333 34.96,20.9333333 L34.96,21.92 C33.7333333,21.8933333 32.4533333,21.8133333 31.1733333,21.7866667 C29.7866667,21.8133333 28.4266667,21.8933333 27.04,21.92 L27.04,20.9333333 C27.52,20.9333333 28.32,20.8533333 28.6666667,20.3733333 C28.9866667,19.9733333 28.9866667,18.5866667 28.9866667,18.0533333 L28.9866667,12.72 C28.9866667,10.88 28.64,10.1866667 27.0133333,10.2133333 L27.0133333,9.2 C29.0133333,9.04 30.9866667,8.77333333 33.0133333,8.26666667 L33.0133333,18.0533333 L33.0133333,18.0533333 Z M28.2933333,3.36 C28.2933333,2.05333333 29.3333333,1.01333333 30.64,1.01333333 C31.9733333,1.01333333 32.9066667,2.05333333 32.9066667,3.36 C32.9066667,4.69333333 31.84,5.62666667 30.5333333,5.62666667 C29.36,5.65333333 28.2933333,4.53333333 28.2933333,3.36 Z" id="Shape"></path>
                    <path d="M40.0266667,10.0533333 L40.0266667,17.8133333 C40.0266667,19.0133333 40.0266667,20.4 41.1466667,20.4 C41.92,20.4 42.5333333,19.7866667 42.96,19.2 L44,19.92 C43.0133333,21.4933333 41.4666667,22.2666667 39.6533333,22.2666667 C36.64,22.2666667 36,20.5066667 36,17.84 L36,10.08 L34.3466667,10.08 L34.3466667,9.14666667 C36.5866667,8.50666667 38.1066667,6.90666667 38.72,4.64 L40.0533333,4.64 L40.0533333,8.82666667 L43.1733333,8.82666667 L43.1733333,10.0533333 L40.0266667,10.0533333 L40.0266667,10.0533333 Z" id="Path"></path>
                    <path d="M50,10.7733333 L50.0533333,10.7733333 C50.9333333,9.12 52.8266667,8.26666667 54.6666667,8.26666667 C56.88,8.26666667 58.9066667,9.54666667 58.9066667,11.9733333 L58.9066667,18.0533333 C58.9066667,18.5866667 58.9066667,19.9733333 59.2266667,20.3733333 C59.5733333,20.8266667 60.3733333,20.9333333 60.8533333,20.9333333 L60.8533333,21.92 C59.6266667,21.8933333 58.4533333,21.8133333 57.2533333,21.7866667 C55.8133333,21.8133333 54.4,21.8933333 52.9333333,21.92 L52.9333333,20.9333333 C53.4133333,20.9333333 54.2133333,20.8533333 54.56,20.3733333 C54.88,19.9733333 54.88,18.5866667 54.88,18.0533333 L54.88,13.04 C54.88,11.68 54.4266667,10.2933333 52.7733333,10.2933333 C50.9066667,10.2933333 49.9733333,12.5866667 49.9733333,14.1066667 L49.9733333,18.0533333 C49.9733333,18.5866667 49.9733333,19.9733333 50.2933333,20.3733333 C50.64,20.8266667 51.44,20.9333333 51.92,20.9333333 L51.92,21.92 C50.5866667,21.8933333 49.28,21.8133333 47.9466667,21.7866667 C46.6133333,21.8133333 45.3333333,21.8933333 44,21.92 L44,20.9333333 C44.48,20.9333333 45.3066667,20.8533333 45.6266667,20.3733333 C45.9466667,19.9733333 45.9466667,18.5866667 45.9466667,18.0533333 L45.9466667,5.33333333 C45.92,3.68 45.76,3.14666667 43.9733333,2.96 L43.9733333,1.94666667 L49.9733333,1.01333333 L49.9733333,10.7733333 L50,10.7733333 Z" id="Path"></path>
                    <path d="M61.1733333,19.52 C61.1733333,18.1333333 62.2933333,17.0666667 63.68,17.0666667 C65.04,17.0666667 66.1866667,18.1066667 66.1866667,19.4933333 C66.1866667,20.88 65.12,22.0533333 63.68,22.0533333 C62.2933333,22.0533333 61.1733333,20.9066667 61.1733333,19.52 Z" id="Path"></path>
                </g>
                <g transform="translate(2.666667, 26.666667)">
                    <path d="M14.96,21.6533333 C14.32,22.8533333 12.56,23.5733333 11.2533333,23.5733333 C9.78666667,23.5733333 8.98666667,22.9066667 8.56,21.52 C7.44,22.6933333 5.81333333,23.5733333 4.21333333,23.5733333 C2.26666667,23.5733333 0.666666667,22.24 0.666666667,20.24 C0.666666667,17.2 4.16,16.1333333 6.85333333,15.0933333 C7.81333333,14.72 8.58666667,14.72 8.58666667,13.5466667 C8.58666667,12.1866667 8.45333333,10.8266667 6.8,10.8266667 C5.62666667,10.8266667 5.28,11.3066667 4.85333333,12.3733333 C4.48,13.36 4.08,14.32 2.85333333,14.32 C1.89333333,14.32 1.2,13.6533333 1.2,12.6666667 C1.2,10.0533333 5.22666667,9.62666667 7.14666667,9.62666667 C9.78666667,9.62666667 12.64,10.2933333 12.64,13.44 L12.64,19.68 C12.64,20.2133333 12.64,21.2533333 13.28,21.2533333 C13.76,21.2533333 13.9733333,21.0933333 14.32,20.8266667 L14.96,21.6533333 Z M8.61333333,15.68 C7.06666667,16.3466667 5.04,17.2 5.04,19.1733333 C5.04,20.16 5.44,21.28 6.56,21.28 C7.49333333,21.28 8.61333333,20.3733333 8.61333333,19.36 L8.61333333,15.68 L8.61333333,15.68 Z" id="Shape"></path>
                    <path d="M26.88,20.48 C25.4933333,22.5066667 23.3866667,23.5733333 20.96,23.5733333 C16.9333333,23.5733333 14.1333333,20.88 14.1333333,16.8 C14.1333333,12.3733333 17.6,9.62666667 21.84,9.62666667 C23.52,9.62666667 26.72,10.4 26.72,12.5866667 C26.72,13.4933333 26,14.24 25.12,14.24 C22.6666667,14.24 23.52,10.8533333 21.36,10.8533333 C18.9066667,10.8533333 18.6133333,14.48 18.6133333,16.2933333 C18.6133333,18.8 19.2,21.84 22.3466667,21.84 C23.9733333,21.84 24.9333333,20.8266667 25.9466667,19.6533333 L26.88,20.48 Z" id="Path"></path>
                    <path d="M32.4266667,11.36 L32.4266667,19.12 C32.4266667,20.32 32.4266667,21.7066667 33.52,21.7066667 C34.2933333,21.7066667 34.9066667,21.0933333 35.3333333,20.5066667 L36.3733333,21.2266667 C35.3866667,22.8 33.84,23.5733333 32.0266667,23.5733333 C29.0133333,23.5733333 28.3733333,21.8133333 28.3733333,19.1466667 L28.3733333,11.3866667 L26.72,11.3866667 L26.72,10.4533333 C28.96,9.81333333 30.48,8.21333333 31.0933333,5.94666667 L32.4266667,5.94666667 L32.4266667,10.1333333 L35.5466667,10.1333333 L35.5466667,11.36 L32.4266667,11.36 L32.4266667,11.36 Z" id="Path"></path>
                    <path d="M42.4,19.3866667 C42.4,19.92 42.4,21.3066667 42.72,21.7066667 C43.0666667,22.16 43.8666667,22.2666667 44.3466667,22.2666667 L44.3466667,23.2533333 C43.12,23.2266667 41.84,23.1466667 40.56,23.12 C39.1733333,23.1466667 37.8133333,23.2266667 36.4266667,23.2533333 L36.4266667,22.2666667 C36.9066667,22.2666667 37.7333333,22.1866667 38.0533333,21.7066667 C38.3733333,21.3066667 38.3733333,19.92 38.3733333,19.3866667 L38.3733333,14.0533333 C38.3733333,12.2133333 38.0266667,11.52 36.4,11.5466667 L36.4,10.5333333 C38.4,10.3733333 40.3733333,10.1066667 42.4,9.6 L42.4,19.3866667 L42.4,19.3866667 Z M37.7066667,4.69333333 C37.7066667,3.38666667 38.7466667,2.34666667 40.0533333,2.34666667 C41.3866667,2.34666667 42.32,3.38666667 42.32,4.69333333 C42.32,6.02666667 41.2533333,6.96 39.9466667,6.96 C38.7733333,6.96 37.7066667,5.84 37.7066667,4.69333333 Z" id="Shape"></path>
                    <path d="M58.8,16.5333333 C58.8,20.64 55.44,23.5466667 51.4933333,23.5466667 C47.44,23.5466667 43.8933333,20.7733333 43.8933333,16.48 C43.8933333,12.4266667 47.6,9.57333333 51.4133333,9.57333333 C55.36,9.6 58.8,12.4 58.8,16.5333333 Z M48.3466667,16.48 C48.3466667,18.7466667 48.56,22.32 51.6533333,22.32 C54.24,22.32 54.32,18.4266667 54.32,16.64 C54.32,14.5866667 54.24,10.8266667 51.4133333,10.8266667 C48.6933333,10.8533333 48.3466667,14.4533333 48.3466667,16.48 Z" id="Shape"></path>
                    <path d="M64.5066667,19.3866667 C64.5066667,19.92 64.5066667,21.3066667 64.7733333,21.7066667 C65.12,22.16 65.92,22.2666667 66.4,22.2666667 L66.4,23.2533333 C65.0666667,23.2266667 63.7866667,23.1466667 62.4533333,23.12 C61.1733333,23.1466667 59.84,23.2266667 58.5333333,23.2533333 L58.5333333,22.2666667 C59.0133333,22.2666667 59.84,22.1866667 60.16,21.7066667 C60.4266667,21.3066667 60.4266667,19.92 60.4266667,19.3866667 L60.4266667,14.9866667 C60.4266667,13.3333333 60.4533333,11.84 58.4266667,11.84 L58.4266667,10.8266667 C60.3466667,10.64 62.24,10.3733333 64.1066667,9.62666667 L64.4533333,12.4 C65.6,10.8 67.0133333,9.62666667 69.0133333,9.62666667 C70.3466667,9.62666667 71.8133333,10.1066667 72.6666667,11.2266667 C73.44,12.24 73.4133333,14.0533333 73.4133333,15.3333333 L73.4133333,19.4133333 C73.4133333,19.9466667 73.4133333,21.3333333 73.68,21.7333333 C74.0266667,22.1866667 74.8266667,22.2933333 75.3066667,22.2933333 L75.3066667,23.28 C74.1066667,23.2533333 72.9066667,23.1733333 71.7066667,23.1466667 C70.2933333,23.1733333 68.8533333,23.2533333 67.4133333,23.28 L67.4133333,22.24 C67.8933333,22.24 68.72,22.2133333 69.04,21.76 C69.36,21.36 69.36,19.9733333 69.36,19.44 L69.36,15.6 C69.36,14.16 69.4666667,11.68 67.3866667,11.68 C66.1866667,11.68 65.36,12.56 64.8533333,13.6 C64.4266667,14.5066667 64.4533333,15.8133333 64.4533333,16.8 L64.4533333,19.3866667 L64.5066667,19.3866667 Z" id="Path"></path>
                    <path d="M75.68,20.8533333 C75.68,19.4666667 76.8,18.4 78.1866667,18.4 C79.5466667,18.4 80.6666667,19.44 80.6666667,20.8266667 C80.6666667,22.2133333 79.6,23.3866667 78.1866667,23.3866667 C76.7733333,23.3866667 75.68,22.24 75.68,20.8533333 Z" id="Path"></path>
                </g>
                <g transform="translate(2.666667, 56.000000)">
                    <path d="M0.293333333,8.85333333 L5.92,7.65333333 L6.13333333,10.64 L6.18666667,10.64 C6.93333333,9.2 8.37333333,7.65333333 10.0533333,7.65333333 C11.3066667,7.65333333 12.4,8.69333333 12.4,10.0266667 C12.4,11.04 11.6266667,11.6 10.64,11.6 C8.98666667,11.6 9.22666667,10.2666667 8.21333333,10.2666667 C6.56,10.2666667 6.34666667,13.2533333 6.34666667,14.32 L6.34666667,17.4133333 C6.34666667,19.6533333 6.34666667,20.32 8.50666667,20.2666667 L8.50666667,21.2533333 C7.09333333,21.2266667 5.65333333,21.1466667 4.24,21.12 C2.93333333,21.1466667 1.65333333,21.2266667 0.4,21.2533333 L0.4,20.2666667 C0.88,20.2666667 1.68,20.1866667 2.02666667,19.7066667 C2.34666667,19.3066667 2.34666667,17.92 2.34666667,17.3866667 L2.34666667,12.4 C2.34666667,10.4533333 1.89333333,9.97333333 0.32,9.84 L0.32,8.85333333 L0.293333333,8.85333333 Z" id="Path"></path>
                    <path d="M16.3733333,14.08 C16.32,16.8 17.1466667,19.8666667 20.4,19.8666667 C22.16,19.8666667 22.9866667,19.0133333 24.16,17.8133333 L25.12,18.5866667 C23.7866667,20.6133333 21.6266667,21.6 19.2266667,21.6 C15.2,21.6 12.08,19.04 11.8933333,14.8533333 C11.7066667,10.56 14.9866667,7.65333333 19.1733333,7.65333333 C22.48,7.65333333 25.4133333,9.89333333 25.4133333,13.36 C25.4133333,14.2133333 24.9333333,14.1066667 24.1866667,14.1066667 L16.3733333,14.1066667 L16.3733333,14.08 Z M20.5066667,12.8533333 C21.1466667,12.8533333 21.3866667,12.64 21.3866667,12 C21.3866667,10.5866667 20.5333333,8.88 18.9333333,8.88 C17.0666667,8.88 16.48,11.2266667 16.4,12.8533333 L20.5066667,12.8533333 Z" id="Shape"></path>
                    <path d="M27.0933333,21.2 L25.8666667,21.2 L25.7066667,17.0133333 L26.9333333,17.0133333 C27.76,18.7466667 29.04,20.3733333 31.12,20.3733333 C32.2933333,20.3733333 33.52,19.7866667 33.52,18.4533333 C33.52,17.0666667 31.7066667,16.6933333 30.6933333,16.4 C28.24,15.6533333 26,14.7466667 26,11.76 C26,8.93333333 28.3466667,7.65333333 30.8533333,7.65333333 C32.2666667,7.65333333 33.2533333,8 34.4533333,8.72 L34.9866667,7.65333333 L36.2133333,7.65333333 L36.2133333,11.68 L34.9866667,11.68 C34.32,10.2133333 33.1466667,8.88 31.4133333,8.88 C30.48,8.88 29.2533333,9.33333333 29.2533333,10.48 C29.2533333,11.84 30.72,12.08 31.7866667,12.4 C34.2933333,13.2 36.9333333,14.0266667 36.9333333,17.1733333 C36.9333333,20.32 34.3733333,21.6 31.6,21.6 C30.2666667,21.6 28.5866667,21.2 27.5733333,20.24 L27.0933333,21.2 Z" id="Path"></path>
                    <path d="M53.6,21.28 L48.3733333,21.28 L48.1066667,18.64 L48.0533333,18.64 C46.8,20.6666667 45.2,21.6266667 42.8,21.6266667 C39.76,21.6266667 38.88,19.76 38.88,17.0666667 L38.88,12.08 C38.88,11.5466667 38.9066667,10.16 38.6133333,9.76 C38.2666667,9.33333333 37.4666667,9.33333333 36.9866667,9.28 L36.9866667,8.26666667 L42.9333333,7.92 L42.9333333,16.32 C42.9333333,17.92 43.0666667,19.6266667 44.9866667,19.6266667 C47.3066667,19.6266667 47.8133333,17.3333333 47.8133333,15.3066667 L47.8133333,12.08 C47.8133333,11.5466667 47.8133333,10.16 47.5466667,9.76 C47.2266667,9.30666667 46.4,9.33333333 45.92,9.28 L45.92,8.26666667 L51.8666667,7.92 L51.8666667,16.8 C51.8666667,17.3866667 51.9466667,18.4 52.1866667,18.9333333 C52.3733333,19.36 52.8,20.32 53.6533333,20.32 L53.6533333,21.28 L53.6,21.28 Z" id="Path"></path>
                    <path d="M56.0266667,4.93333333 C56.0266667,3.28 56.08,2.50666667 54.0533333,2.32 L54.0533333,1.30666667 L60.0533333,0.373333333 L60.0533333,17.4133333 C60.0533333,19.4133333 59.8666667,20.1866667 62.0533333,20.2666667 L62.0533333,21.2533333 C60.7466667,21.2266667 59.4666667,21.1466667 58.1333333,21.12 C56.6933333,21.1466667 55.2266667,21.2266667 53.7866667,21.2533333 L53.7866667,20.2666667 C56.1333333,20.2133333 56,19.5466667 56,17.4133333 L56,4.93333333 L56.0266667,4.93333333 Z" id="Path"></path>
                    <path d="M67.36,9.41333333 L67.36,17.1733333 C67.36,18.3733333 67.36,19.76 68.48,19.76 C69.2533333,19.76 69.8666667,19.1466667 70.2933333,18.56 L71.3333333,19.28 C70.3466667,20.8533333 68.8,21.6266667 66.9866667,21.6266667 C63.9733333,21.6266667 63.3333333,19.8666667 63.3333333,17.2 L63.3333333,9.44 L61.68,9.44 L61.68,8.50666667 C63.92,7.86666667 65.44,6.26666667 66.0533333,4 L67.3866667,4 L67.3866667,8.18666667 L70.5066667,8.18666667 L70.5066667,9.41333333 L67.36,9.41333333 L67.36,9.41333333 Z" id="Path"></path>
                    <path d="M72.96,21.28 L71.7333333,21.28 L71.5733333,17.0933333 L72.8,17.0933333 C73.6266667,18.8266667 74.9066667,20.4533333 76.9866667,20.4533333 C78.16,20.4533333 79.3866667,19.8666667 79.3866667,18.5333333 C79.3866667,17.1466667 77.5733333,16.7733333 76.56,16.48 C74.1066667,15.7333333 71.8666667,14.8266667 71.8666667,11.84 C71.8666667,9.01333333 74.2133333,7.73333333 76.7466667,7.73333333 C78.16,7.73333333 79.1466667,8.08 80.3466667,8.8 L80.88,7.73333333 L82.1066667,7.73333333 L82.1066667,11.76 L80.88,11.76 C80.2133333,10.2933333 79.04,8.96 77.3066667,8.96 C76.3733333,8.96 75.1466667,9.41333333 75.1466667,10.56 C75.1466667,11.92 76.6133333,12.16 77.68,12.48 C80.1866667,13.28 82.8266667,14.1066667 82.8266667,17.2533333 C82.8266667,20.4 80.2666667,21.68 77.4933333,21.68 C76.16,21.68 74.48,21.28 73.4666667,20.32 L72.96,21.28 Z" id="Path"></path>
                    <path d="M83.4133333,18.9866667 C83.4133333,17.6 84.5333333,16.5333333 85.92,16.5333333 C87.28,16.5333333 88.4266667,17.5733333 88.4266667,18.96 C88.4266667,20.3466667 87.3333333,21.52 85.92,21.52 C84.5333333,21.4933333 83.4133333,20.3733333 83.4133333,18.9866667 Z" id="Path"></path>
                </g>
            </g>
        </g>
    </g>
</svg>